<svg id="visual" viewBox="0 0 1920 1080" width="1920" height="1080" xmlns="http://www.w3.org/2000/svg" xmlns:xlink="http://www.w3.org/1999/xlink" version="1.1"><rect x="0" y="0" width="1920" height="1080" fill="#20004f"></rect><path d="M0 677L45.7 674.7C91.3 672.3 182.7 667.7 274.2 663.2C365.7 658.7 457.3 654.3 548.8 659.8C640.3 665.3 731.7 680.7 823 679C914.3 677.3 1005.7 658.7 1097 650.7C1188.3 642.7 1279.7 645.3 1371.2 659.7C1462.7 674 1554.3 700 1645.8 700.5C1737.3 701 1828.7 676 1874.3 663.5L1920 651L1920 1081L1874.3 1081C1828.7 1081 1737.3 1081 1645.8 1081C1554.3 1081 1462.7 1081 1371.2 1081C1279.7 1081 1188.3 1081 1097 1081C1005.7 1081 914.3 1081 823 1081C731.7 1081 640.3 1081 548.8 1081C457.3 1081 365.7 1081 274.2 1081C182.7 1081 91.3 1081 45.7 1081L0 1081Z" fill="#6600ff"></path><path d="M0 790L45.7 789.5C91.3 789 182.7 788 274.2 795.5C365.7 803 457.3 819 548.8 824.3C640.3 829.7 731.7 824.3 823 813.7C914.3 803 1005.7 787 1097 775.3C1188.3 763.7 1279.7 756.3 1371.2 771.3C1462.7 786.3 1554.3 823.7 1645.8 839.3C1737.3 855 1828.7 849 1874.3 846L1920 843L1920 1081L1874.3 1081C1828.7 1081 1737.3 1081 1645.8 1081C1554.3 1081 1462.7 1081 1371.2 1081C1279.7 1081 1188.3 1081 1097 1081C1005.7 1081 914.3 1081 823 1081C731.7 1081 640.3 1081 548.8 1081C457.3 1081 365.7 1081 274.2 1081C182.7 1081 91.3 1081 45.7 1081L0 1081Z" fill="#e300b1"></path><path d="M0 850L45.7 858.5C91.3 867 182.7 884 274.2 888.3C365.7 892.7 457.3 884.3 548.8 868.7C640.3 853 731.7 830 823 833.5C914.3 837 1005.7 867 1097 878.5C1188.3 890 1279.7 883 1371.2 882.5C1462.7 882 1554.3 888 1645.8 887C1737.3 886 1828.7 878 1874.3 874L1920 870L1920 1081L1874.3 1081C1828.7 1081 1737.3 1081 1645.8 1081C1554.3 1081 1462.7 1081 1371.2 1081C1279.7 1081 1188.3 1081 1097 1081C1005.7 1081 914.3 1081 823 1081C731.7 1081 640.3 1081 548.8 1081C457.3 1081 365.7 1081 274.2 1081C182.7 1081 91.3 1081 45.7 1081L0 1081Z" fill="#ff0074"></path><path d="M0 960L45.7 956.7C91.3 953.3 182.7 946.7 274.2 943.2C365.7 939.7 457.3 939.3 548.8 935.8C640.3 932.3 731.7 925.7 823 915.2C914.3 904.7 1005.7 890.3 1097 888C1188.3 885.7 1279.7 895.3 1371.2 906C1462.7 916.7 1554.3 928.3 1645.8 926.2C1737.3 924 1828.7 908 1874.3 900L1920 892L1920 1081L1874.3 1081C1828.7 1081 1737.3 1081 1645.8 1081C1554.3 1081 1462.7 1081 1371.2 1081C1279.7 1081 1188.3 1081 1097 1081C1005.7 1081 914.3 1081 823 1081C731.7 1081 640.3 1081 548.8 1081C457.3 1081 365.7 1081 274.2 1081C182.7 1081 91.3 1081 45.7 1081L0 1081Z" fill="#ff4745"></path><path d="M0 972L45.7 967.5C91.3 963 182.7 954 274.2 958.5C365.7 963 457.3 981 548.8 993.8C640.3 1006.7 731.7 1014.3 823 1006.3C914.3 998.3 1005.7 974.7 1097 974.3C1188.3 974 1279.7 997 1371.2 1007.2C1462.7 1017.3 1554.3 1014.7 1645.8 1012.5C1737.3 1010.3 1828.7 1008.7 1874.3 1007.8L1920 1007L1920 1081L1874.3 1081C1828.7 1081 1737.3 1081 1645.8 1081C1554.3 1081 1462.7 1081 1371.2 1081C1279.7 1081 1188.3 1081 1097 1081C1005.7 1081 914.3 1081 823 1081C731.7 1081 640.3 1081 548.8 1081C457.3 1081 365.7 1081 274.2 1081C182.7 1081 91.3 1081 45.7 1081L0 1081Z" fill="#f7770f"></path></svg>